<?xml version="1.0" encoding="UTF-8" standalone="no"?>
<svg
   xmlns:dc="http://purl.org/dc/elements/1.1/"
   xmlns:cc="http://creativecommons.org/ns#"
   xmlns:rdf="http://www.w3.org/1999/02/22-rdf-syntax-ns#"
   xmlns:svg="http://www.w3.org/2000/svg"
   xmlns="http://www.w3.org/2000/svg"
   xmlns:sodipodi="http://sodipodi.sourceforge.net/DTD/sodipodi-0.dtd"
   xmlns:inkscape="http://www.inkscape.org/namespaces/inkscape"
   inkscape:version="1.0 (4035a4fb49, 2020-05-01)"
   sodipodi:docname="4092564_profile_about_mobile ui_user_icon.svg"
   id="svg9"
   version="1.1"
   viewBox="0 0 32 32">
  <metadata
     id="metadata15">
    <rdf:RDF>
      <cc:Work
         rdf:about="">
        <dc:format>image/svg+xml</dc:format>
        <dc:type
           rdf:resource="http://purl.org/dc/dcmitype/StillImage" />
      </cc:Work>
    </rdf:RDF>
  </metadata>
  <defs
     id="defs13" />
  <sodipodi:namedview
     inkscape:current-layer="svg9"
     inkscape:window-maximized="1"
     inkscape:window-y="-9"
     inkscape:window-x="-9"
     inkscape:cy="17.12879"
     inkscape:cx="52.373288"
     inkscape:zoom="9.0598056"
     showgrid="false"
     id="namedview11"
     inkscape:window-height="991"
     inkscape:window-width="1920"
     inkscape:pageshadow="2"
     inkscape:pageopacity="0"
     guidetolerance="10"
     gridtolerance="10"
     objecttolerance="10"
     borderopacity="1"
     bordercolor="#666666"
     pagecolor="#ffffff" />
  <title
     id="title2" />
  <path
     style="fill:#ffffff;fill-opacity:1"
     d="M 16,16 A 7,7 0 1 0 9,9 7,7 0 0 0 16,16 Z M 16,4 a 5,5 0 1 1 -5,5 5,5 0 0 1 5,-5 z"
     id="path4" />
  <path
     style="fill:#ffffff;fill-opacity:1"
     d="M 17,18 H 15 A 11,11 0 0 0 4,29 1,1 0 0 0 5,30 H 27 A 1,1 0 0 0 28,29 11,11 0 0 0 17,18 Z M 6.06,28 A 9,9 0 0 1 15,20 h 2 a 9,9 0 0 1 8.94,8 z"
     id="path6" />
</svg>
